<svg width="1600" height="520" viewBox="0 0 1600 520" fill="none" xmlns="http://www.w3.org/2000/svg">
  <defs>
    <linearGradient id="panel" x1="64" y1="44" x2="1544" y2="476" gradientUnits="userSpaceOnUse">
      <stop stop-color="#F6E6CF"/>
      <stop offset="0.5" stop-color="#EFF4F7"/>
      <stop offset="1" stop-color="#DDEAF8"/>
    </linearGradient>
    <linearGradient id="miniGlass" x1="112" y1="88" x2="382" y2="422" gradientUnits="userSpaceOnUse">
      <stop stop-color="#FFFFFF" stop-opacity="0.82"/>
      <stop offset="1" stop-color="#FFFFFF" stop-opacity="0.26"/>
    </linearGradient>
    <linearGradient id="miniSlot" x1="160" y1="198" x2="326" y2="266" gradientUnits="userSpaceOnUse">
      <stop stop-color="#67B8FF"/>
      <stop offset="1" stop-color="#1A84F3"/>
    </linearGradient>
  </defs>

  <rect width="1600" height="520" rx="84" fill="url(#panel)"/>

  <g>
    <rect x="92" y="76" width="300" height="368" rx="96" fill="url(#miniGlass)"/>
    <rect x="92" y="76" width="300" height="368" rx="96" stroke="white" stroke-opacity="0.44" stroke-width="4"/>

    <rect x="148" y="172" width="188" height="106" rx="53" fill="white" fill-opacity="0.28"/>
    <rect x="148" y="172" width="188" height="106" rx="53" stroke="white" stroke-opacity="0.32" stroke-width="3"/>

    <rect x="170" y="196" width="144" height="58" rx="29" fill="url(#miniSlot)"/>
    <rect x="206" y="220" width="70" height="8" rx="4" fill="white" fill-opacity="0.96"/>
    <rect x="188" y="212" width="10" height="26" rx="5" fill="white" fill-opacity="0.96"/>

    <path d="M340 154C340 140.745 350.745 130 364 130C350.745 130 340 119.255 340 106C340 119.255 329.255 130 316 130C329.255 130 340 140.745 340 154Z" fill="white" fill-opacity="0.94"/>
  </g>

  <g fill="#12171E">
    <text x="456" y="238" font-family="SF Pro Display, Inter, Helvetica Neue, Arial, sans-serif" font-size="138" font-weight="650" letter-spacing="-0.055em">yamtrack</text>
    <text x="464" y="314" font-family="SF Pro Display, Inter, Helvetica Neue, Arial, sans-serif" font-size="42" font-weight="500" fill-opacity="0.62" letter-spacing="0.015em">Track every kind of media with clarity.</text>
  </g>
</svg>
