<svg width="1024" height="1024" viewBox="0 0 1024 1024" fill="none" xmlns="http://www.w3.org/2000/svg">
  <defs>
    <linearGradient id="bg" x1="146" y1="118" x2="902" y2="924" gradientUnits="userSpaceOnUse">
      <stop stop-color="#F6E6CF"/>
      <stop offset="0.48" stop-color="#EEF3F6"/>
      <stop offset="1" stop-color="#D9E8F8"/>
    </linearGradient>
    <radialGradient id="blueGlow" cx="0" cy="0" r="1" gradientUnits="userSpaceOnUse" gradientTransform="translate(724 736) rotate(129.337) scale(284.184)">
      <stop stop-color="#6DBBFF"/>
      <stop offset="1" stop-color="#6DBBFF" stop-opacity="0"/>
    </radialGradient>
    <radialGradient id="warmGlow" cx="0" cy="0" r="1" gradientUnits="userSpaceOnUse" gradientTransform="translate(308 286) rotate(49.811) scale(268.719)">
      <stop stop-color="#FFDCA9"/>
      <stop offset="1" stop-color="#FFDCA9" stop-opacity="0"/>
    </radialGradient>
    <linearGradient id="glass" x1="306" y1="240" x2="722" y2="808" gradientUnits="userSpaceOnUse">
      <stop stop-color="#FFFFFF" stop-opacity="0.82"/>
      <stop offset="1" stop-color="#FFFFFF" stop-opacity="0.22"/>
    </linearGradient>
    <linearGradient id="slot" x1="378" y1="414" x2="648" y2="520" gradientUnits="userSpaceOnUse">
      <stop stop-color="#67B8FF"/>
      <stop offset="1" stop-color="#1A84F3"/>
    </linearGradient>
    <filter id="shadow" x="190" y="170" width="644" height="700" filterUnits="userSpaceOnUse" color-interpolation-filters="sRGB">
      <feFlood flood-opacity="0" result="BackgroundImageFix"/>
      <feColorMatrix in="SourceAlpha" type="matrix" values="0 0 0 0 0 0 0 0 0 0 0 0 0 0 0 0 0 0 127 0" result="hardAlpha"/>
      <feOffset dy="28"/>
      <feGaussianBlur stdDeviation="30"/>
      <feColorMatrix type="matrix" values="0 0 0 0 0.226 0 0 0 0 0.328 0 0 0 0 0.451 0 0 0 0.16 0"/>
      <feBlend mode="normal" in2="BackgroundImageFix" result="effect1_dropShadow"/>
      <feBlend mode="normal" in="SourceGraphic" in2="effect1_dropShadow" result="shape"/>
    </filter>
  </defs>

  <rect width="1024" height="1024" rx="232" fill="url(#bg)"/>
  <circle cx="724" cy="736" r="238" fill="url(#blueGlow)"/>
  <circle cx="308" cy="286" r="220" fill="url(#warmGlow)"/>

  <g filter="url(#shadow)">
    <rect x="250" y="214" width="524" height="596" rx="170" fill="url(#glass)"/>
    <rect x="250" y="214" width="524" height="596" rx="170" stroke="white" stroke-opacity="0.42" stroke-width="6"/>

    <rect x="356" y="402" width="312" height="164" rx="82" fill="white" fill-opacity="0.26"/>
    <rect x="356" y="402" width="312" height="164" rx="82" stroke="white" stroke-opacity="0.32" stroke-width="4"/>

    <rect x="388" y="440" width="248" height="88" rx="44" fill="url(#slot)"/>
    <rect x="438" y="470" width="120" height="12" rx="6" fill="white" fill-opacity="0.94"/>
    <rect x="408" y="460" width="16" height="48" rx="8" fill="white" fill-opacity="0.96"/>

    <path d="M690 348C690 325.909 707.909 308 730 308C707.909 308 690 290.091 690 268C690 290.091 672.091 308 650 308C672.091 308 690 325.909 690 348Z" fill="white" fill-opacity="0.92"/>
  </g>
</svg>
