<svg width="1024" height="1024" viewBox="0 0 1024 1024" fill="none" xmlns="http://www.w3.org/2000/svg">
  <defs>
    <linearGradient id="bg" x1="140" y1="112" x2="884" y2="928" gradientUnits="userSpaceOnUse">
      <stop stop-color="#F7E7D2"/>
      <stop offset="0.46" stop-color="#E9F1F5"/>
      <stop offset="1" stop-color="#D6E7F8"/>
    </linearGradient>
    <linearGradient id="glass" x1="276" y1="216" x2="748" y2="820" gradientUnits="userSpaceOnUse">
      <stop stop-color="#FFFFFF" stop-opacity="0.78"/>
      <stop offset="1" stop-color="#FFFFFF" stop-opacity="0.24"/>
    </linearGradient>
    <linearGradient id="accent" x1="312" y1="332" x2="740" y2="708" gradientUnits="userSpaceOnUse">
      <stop stop-color="#4DB2FF"/>
      <stop offset="1" stop-color="#127AF1"/>
    </linearGradient>
    <filter id="blurGlow" x="56" y="56" width="912" height="912" filterUnits="userSpaceOnUse" color-interpolation-filters="sRGB">
      <feFlood flood-opacity="0" result="BackgroundImageFix"/>
      <feBlend mode="normal" in="SourceGraphic" in2="BackgroundImageFix" result="shape"/>
      <feGaussianBlur stdDeviation="44" result="effect1_foregroundBlur"/>
    </filter>
    <filter id="shadow" x="176" y="164" width="672" height="696" filterUnits="userSpaceOnUse" color-interpolation-filters="sRGB">
      <feFlood flood-opacity="0" result="BackgroundImageFix"/>
      <feColorMatrix in="SourceAlpha" type="matrix" values="0 0 0 0 0 0 0 0 0 0 0 0 0 0 0 0 0 0 127 0" result="hardAlpha"/>
      <feOffset dy="26"/>
      <feGaussianBlur stdDeviation="30"/>
      <feColorMatrix type="matrix" values="0 0 0 0 0.267 0 0 0 0 0.392 0 0 0 0 0.533 0 0 0 0.16 0"/>
      <feBlend mode="normal" in2="BackgroundImageFix" result="effect1_dropShadow"/>
      <feBlend mode="normal" in="SourceGraphic" in2="effect1_dropShadow" result="shape"/>
    </filter>
  </defs>

  <rect width="1024" height="1024" rx="232" fill="url(#bg)"/>

  <g filter="url(#blurGlow)" opacity="0.58">
    <circle cx="274" cy="294" r="104" fill="#57B8FF"/>
    <circle cx="772" cy="784" r="120" fill="#83C8FF"/>
    <circle cx="758" cy="242" r="94" fill="#FFD6A9"/>
  </g>

  <g filter="url(#shadow)">
    <rect x="244" y="216" width="536" height="568" rx="154" fill="url(#glass)"/>
    <rect x="244" y="216" width="536" height="568" rx="154" stroke="white" stroke-opacity="0.42" stroke-width="6"/>

    <rect x="324" y="336" width="376" height="114" rx="57" fill="url(#accent)"/>
    <rect x="324" y="492" width="290" height="92" rx="46" fill="white" fill-opacity="0.94"/>
    <rect x="324" y="618" width="332" height="92" rx="46" fill="white" fill-opacity="0.72"/>

    <rect x="370" y="368" width="34" height="50" rx="12" fill="white" fill-opacity="0.95"/>
    <path d="M389 368V418" stroke="#1790F5" stroke-width="8" stroke-linecap="round"/>
    <path d="M546 378H634" stroke="white" stroke-width="16" stroke-linecap="round"/>
    <path d="M522 544H564" stroke="#1A1C20" stroke-opacity="0.9" stroke-width="14" stroke-linecap="round"/>
    <path d="M522 650H604" stroke="#1A1C20" stroke-opacity="0.58" stroke-width="14" stroke-linecap="round"/>

    <circle cx="438" cy="538" r="34" fill="#1A1C20" fill-opacity="0.1"/>
    <path d="M438 520V556" stroke="#0F1720" stroke-width="12" stroke-linecap="round"/>
    <path d="M420 538H456" stroke="#0F1720" stroke-width="12" stroke-linecap="round"/>

    <path d="M650 298L662 330L694 342L662 354L650 386L638 354L606 342L638 330L650 298Z" fill="white" fill-opacity="0.96"/>
  </g>
</svg>
